<?xml version="1.0" encoding="utf-8"?>
<!-- Generator: Adobe Illustrator 21.0.0, SVG Export Plug-In . SVG Version: 6.00 Build 0)  -->
<svg version="1.1" id="Layer_1" xmlns="http://www.w3.org/2000/svg" xmlns:xlink="http://www.w3.org/1999/xlink" x="0px" y="0px"
	 viewBox="0 0 1920 1080" style="enable-background:new 0 0 1920 1080;" xml:space="preserve">
<style type="text/css">
	.st0{fill:none;stroke:#010101;stroke-width:0.7;}
</style>
<g id="layer1" inkscape:groupmode="layer" inkscape:label="Layer 1">
	<g id="g6044" transform="matrix(0.1994044,0,0,0.1994044,-0.5603414,3.97494)">
		<path id="path6199" inkscape:connector-curvature="0" sodipodi:nodetypes="czc" class="st0" d="M6381.6,5406.2
			c0,0-29.4-1354-58.8-2708.1S6264.1-9.9,6264.1-9.9"/>
		<path id="path7170" inkscape:connector-curvature="0" sodipodi:nodetypes="czc" class="st0" d="M7045.7,5406.2
			c0,0-13.5-1354-28.3-2708.1S6986.7-9.9,6986.7-9.9"/>
		<path id="path7172" inkscape:connector-curvature="0" sodipodi:nodetypes="czc" class="st0" d="M7709.9,5406.2
			c0,0,1.7-1354,1.6-2708.1c-0.1-1354-2-2708.1-2-2708.1"/>
		<path id="path7174" inkscape:connector-curvature="0" sodipodi:nodetypes="czc" class="st0" d="M8374.3,5406.2
			c0,0,17.1-1354,31.6-2708.1c14.5-1354,26.4-2708.1,26.4-2708.1"/>
		<path id="path7176" inkscape:connector-curvature="0" sodipodi:nodetypes="czc" class="st0" d="M9039.3,5406.2
			c0,0,32.7-1354,61.8-2708.1S9155.7-9.9,9155.7-9.9"/>
		<path id="path3656" inkscape:connector-curvature="0" sodipodi:nodetypes="czc" class="st0" d="M5717.7,5406.2
			c0,0-79.5-2402.4-89.6-2708.1C5617.9,2392.7,5541-9.9,5541-9.9"/>
		<path id="path3666" inkscape:connector-curvature="0" sodipodi:nodetypes="czc" class="st0" d="M2.8,5210.3
			c0,0,2138.7-47.4,4814.3-49.9c2675.7-3.4,4814.3,33.3,4814.3,33.3"/>
		<path id="path4637" inkscape:connector-curvature="0" sodipodi:nodetypes="czc" class="st0" d="M2.8,4329.6
			c0,0,2038.1-45.5,4814.3-49.8c2776.2-5.1,4814.3,31.6,4814.3,31.6"/>
		<path id="path4639" inkscape:connector-curvature="0" sodipodi:nodetypes="czc" class="st0" d="M2.8,3448.6
			c0,0,2050.6-43.4,4814.3-48.9c2763.1-5.4,4814.3,29.5,4814.3,29.5"/>
		<path id="path4641" inkscape:connector-curvature="0" sodipodi:nodetypes="csc" class="st0" d="M2.8,2568.1
			c0,0,2229.5-43.5,4814.3-48.4c2977.6-5.3,4814.3,27.5,4814.3,27.5"/>
		<path id="path4643" inkscape:connector-curvature="0" sodipodi:nodetypes="czc" class="st0" d="M2.8,1687.7
			c0,0,2120.6-41.4,4819.6-47.6c2699.1-6.7,4809.1,25.4,4809.1,25.4"/>
		<path id="path4645" inkscape:connector-curvature="0" sodipodi:nodetypes="czc" class="st0" d="M2.8,807.6
			c0,0,1932.7-40.9,4814.3-46.8c2876.4-5.9,4814.3,23.1,4814.3,23.1"/>
		<path id="path6199_1_" inkscape:connector-curvature="0" sodipodi:nodetypes="czc" class="st0" d="M2208.3,5406.2
			c0,0,29.4-1354,58.8-2708.1c29.4-1354,58.8-2708.1,58.8-2708.1"/>
		<path id="path7170_1_" inkscape:connector-curvature="0" sodipodi:nodetypes="czc" class="st0" d="M2930.9,5406.2
			c0,0,16-1354,30.7-2708.1S2989.9-9.9,2989.9-9.9"/>
		<path id="path7172_1_" inkscape:connector-curvature="0" sodipodi:nodetypes="czc" class="st0" d="M3653.7,5406.2
			c0,0,1.9-1354,2-2708.1c0.1-1354-1.6-2708.1-1.6-2708.1"/>
		<path id="path7174_1_" inkscape:connector-curvature="0" sodipodi:nodetypes="czc" class="st0" d="M4376.5,5406.2
			c0,0-11.9-1354-26.4-2708.1S4318.5-9.9,4318.5-9.9"/>
		<path id="path7176_1_" inkscape:connector-curvature="0" sodipodi:nodetypes="czc" class="st0" d="M5099.8,5406.2
			c0,0-25.5-1354-54.6-2708.1c-29.1-1354-61.8-2708.1-61.8-2708.1"/>
		<path id="path3656_1_" inkscape:connector-curvature="0" sodipodi:nodetypes="czc" class="st0" d="M1485.1,5406.2
			c0,0,76.9-2402.6,87.1-2708.1c10.2-305.6,89.6-2708.1,89.6-2708.1"/>
		<path id="path7172_2_" inkscape:connector-curvature="0" sodipodi:nodetypes="czc" class="st0" d="M166.7,5406.2
			c0,0,1.7-1354,1.6-2708.1c-0.1-1354-2-2708.1-2-2708.1"/>
		<path id="path7174_2_" inkscape:connector-curvature="0" sodipodi:nodetypes="czc" class="st0" d="M831.1,5406.2
			c0,0,17.1-1354,31.6-2708.1C877.1,1344.1,889.1-9.9,889.1-9.9"/>
	</g>
</g>
</svg>
